<svg width="24" height="24" viewBox="0 0 24 24" fill="none" xmlns="http://www.w3.org/2000/svg">
<g clip-path="url(#clip0_99_164)">
<path d="M20 11.3333H12.6667V3.99992C12.6667 3.82311 12.5964 3.65354 12.4714 3.52851C12.3464 3.40349 12.1768 3.33325 12 3.33325C11.8232 3.33325 11.6536 3.40349 11.5286 3.52851C11.4036 3.65354 11.3333 3.82311 11.3333 3.99992V11.3333H3.99999C3.82318 11.3333 3.65361 11.4035 3.52858 11.5285C3.40356 11.6535 3.33332 11.8231 3.33332 11.9999C3.33003 12.0866 3.34535 12.1729 3.37825 12.2531C3.41115 12.3333 3.46086 12.4056 3.52404 12.465C3.58722 12.5244 3.66239 12.5695 3.74449 12.5974C3.82659 12.6253 3.91371 12.6352 3.99999 12.6266H11.3333V19.9999C11.3333 20.1767 11.4036 20.3463 11.5286 20.4713C11.6536 20.5963 11.8232 20.6666 12 20.6666C12.1768 20.6666 12.3464 20.5963 12.4714 20.4713C12.5964 20.3463 12.6667 20.1767 12.6667 19.9999V12.6666H20C20.1768 12.6666 20.3464 12.5963 20.4714 12.4713C20.5964 12.3463 20.6667 12.1767 20.6667 11.9999C20.6667 11.8231 20.5964 11.6535 20.4714 11.5285C20.3464 11.4035 20.1768 11.3333 20 11.3333Z" fill="#16139B"/>
</g>
<defs>
<clipPath id="clip0_99_164">
<rect width="24" height="24" fill="white"/>
</clipPath>
</defs>
</svg>
