<svg width="24" height="24" viewBox="0 0 24 24" fill="none" xmlns="http://www.w3.org/2000/svg">
<path d="M19.75 10.0001C19.75 9.80116 19.671 9.61039 19.5303 9.46974C19.3897 9.32909 19.1989 9.25007 19 9.25007C18.8011 9.25007 18.6103 9.32909 18.4696 9.46974C18.329 9.61039 18.25 9.80116 18.25 10.0001H19.75ZM5.74997 10.0001C5.74997 9.80116 5.67095 9.61039 5.5303 9.46974C5.38965 9.32909 5.19888 9.25007 4.99997 9.25007C4.80106 9.25007 4.61029 9.32909 4.46964 9.46974C4.32899 9.61039 4.24997 9.80116 4.24997 10.0001H5.74997ZM20.47 12.5301C20.5386 12.6038 20.6214 12.6629 20.7134 12.7039C20.8054 12.7448 20.9047 12.7669 21.0054 12.7687C21.1062 12.7704 21.2062 12.7519 21.2996 12.7142C21.393 12.6765 21.4778 12.6203 21.549 12.5491C21.6202 12.4779 21.6764 12.3931 21.7141 12.2997C21.7518 12.2063 21.7703 12.1063 21.7686 12.0056C21.7668 11.9048 21.7447 11.8055 21.7038 11.7135C21.6628 11.6215 21.6037 11.5387 21.53 11.4701L20.47 12.5301ZM12 3.00007L12.53 2.47007C12.3893 2.32962 12.1987 2.25073 12 2.25073C11.8012 2.25073 11.6106 2.32962 11.47 2.47007L12 3.00007ZM2.46997 11.4701C2.39628 11.5387 2.33718 11.6215 2.29619 11.7135C2.2552 11.8055 2.23316 11.9048 2.23138 12.0056C2.2296 12.1063 2.24813 12.2063 2.28585 12.2997C2.32357 12.3931 2.37971 12.4779 2.45093 12.5491C2.52215 12.6203 2.60698 12.6765 2.70037 12.7142C2.79376 12.7519 2.89379 12.7704 2.99449 12.7687C3.0952 12.7669 3.19451 12.7448 3.28651 12.7039C3.37851 12.6629 3.46131 12.6038 3.52997 12.5301L2.46997 11.4701ZM6.99997 21.7501H17V20.2501H6.99997V21.7501ZM19.75 19.0001V10.0001H18.25V19.0001H19.75ZM5.74997 19.0001V10.0001H4.24997V19.0001H5.74997ZM21.53 11.4701L12.53 2.47007L11.47 3.53007L20.47 12.5301L21.53 11.4701ZM11.47 2.47007L2.46997 11.4701L3.52997 12.5301L12.53 3.53007L11.47 2.47007ZM17 21.7501C17.7293 21.7501 18.4288 21.4603 18.9445 20.9446C19.4602 20.4289 19.75 19.7294 19.75 19.0001H18.25C18.25 19.6901 17.69 20.2501 17 20.2501V21.7501ZM6.99997 20.2501C6.30997 20.2501 5.74997 19.6901 5.74997 19.0001H4.24997C4.24997 19.7294 4.5397 20.4289 5.05543 20.9446C5.57115 21.4603 6.27063 21.7501 6.99997 21.7501V20.2501Z" fill="#16139B"/>
</svg>
