<svg width="70" height="70" viewBox="0 0 70 70" fill="none" xmlns="http://www.w3.org/2000/svg">
<circle cx="35" cy="35" r="35" fill="#16139B"/>
<path d="M23.9318 24.3C23.9318 22.6291 24.5999 21.0267 25.789 19.8452C26.9782 18.6637 28.591 18 30.2727 18C31.9544 18 33.5673 18.6637 34.7564 19.8452C35.9456 21.0267 36.6136 22.6291 36.6136 24.3V34.2736C35.0604 34.9483 33.693 35.9836 32.6263 37.2926C31.5597 38.6016 30.825 40.146 30.4841 41.7958L30.2727 41.8C28.591 41.8 26.9782 41.1363 25.789 39.9548C24.5999 38.7733 23.9318 37.1709 23.9318 35.5V24.3ZM30.2953 44.6H30.2727C27.8436 44.6 25.5139 43.6413 23.7963 41.9347C22.0786 40.2281 21.1136 37.9135 21.1136 35.5V34.45C21.1136 34.1715 21.0023 33.9045 20.8041 33.7075C20.6059 33.5106 20.3371 33.4 20.0568 33.4C19.7765 33.4 19.5077 33.5106 19.3095 33.7075C19.1113 33.9045 19 34.1715 19 34.45V35.5C18.9999 38.2887 20.047 40.9771 21.9363 43.0394C23.8257 45.1017 26.4215 46.3896 29.2159 46.651V50.55C29.2159 50.8285 29.3273 51.0956 29.5254 51.2925C29.7236 51.4894 29.9924 51.6 30.2727 51.6C30.553 51.6 30.8218 51.4894 31.02 51.2925C31.2182 51.0956 31.3295 50.8285 31.3295 50.55V48.4822C30.7352 47.2668 30.3839 45.9484 30.2953 44.6ZM40.8409 50.9C38.9723 50.9 37.1803 50.1625 35.859 48.8497C34.5377 47.537 33.7955 45.7565 33.7955 43.9C33.7955 42.0435 34.5377 40.263 35.859 38.9503C37.1803 37.6375 38.9723 36.9 40.8409 36.9C42.7095 36.9 44.5015 37.6375 45.8228 38.9503C47.1441 40.263 47.8864 42.0435 47.8864 43.9C47.8864 45.7565 47.1441 47.537 45.8228 48.8497C44.5015 50.1625 42.7095 50.9 40.8409 50.9ZM40.8409 53C43.2701 53 45.5997 52.0413 47.3174 50.3347C49.035 48.6281 50 46.3135 50 43.9C50 41.4865 49.035 39.1719 47.3174 37.4653C45.5997 35.7587 43.2701 34.8 40.8409 34.8C38.4118 34.8 36.0821 35.7587 34.3645 37.4653C32.6468 39.1719 31.6818 41.4865 31.6818 43.9C31.6818 46.3135 32.6468 48.6281 34.3645 50.3347C36.0821 52.0413 38.4118 53 40.8409 53ZM40.8409 48.8C42.1489 48.8 43.4033 48.2838 44.3282 47.3648C45.2531 46.4459 45.7727 45.1996 45.7727 43.9C45.7727 42.6004 45.2531 41.3541 44.3282 40.4352C43.4033 39.5162 42.1489 39 40.8409 39C39.5329 39 38.2785 39.5162 37.3536 40.4352C36.4287 41.3541 35.9091 42.6004 35.9091 43.9C35.9091 45.1996 36.4287 46.4459 37.3536 47.3648C38.2785 48.2838 39.5329 48.8 40.8409 48.8Z" fill="white"/>
</svg>
