<svg width="20" height="22" viewBox="0 0 20 22" fill="none" xmlns="http://www.w3.org/2000/svg">
<path d="M9.94756 13.8207C9.595 13.8207 9.31799 13.525 9.31799 13.1486V2.39385C9.31799 2.01743 9.595 1.72168 9.94756 1.72168C10.3001 1.72168 10.5771 2.01743 10.5771 2.39385V13.1486C10.5771 13.525 10.3001 13.8207 9.94756 13.8207Z" fill="#16139B"/>
<path d="M12.4659 5.7547C12.3833 5.75577 12.3014 5.73839 12.2255 5.70366C12.1496 5.66893 12.0814 5.61763 12.0252 5.55305L9.9476 3.33489L7.87002 5.55305C7.61819 5.82192 7.22785 5.82192 6.97603 5.55305C6.7242 5.28418 6.7242 4.86743 6.97603 4.59857L9.5069 1.92333C9.75873 1.65446 10.1491 1.65446 10.4009 1.92333L12.9192 4.61201C13.171 4.88088 13.171 5.29762 12.9192 5.56649C12.7933 5.70092 12.6296 5.76814 12.4785 5.76814L12.4659 5.7547ZM16.2433 20.5424H3.65189C2.60681 20.5424 1.76318 19.6417 1.76318 18.5259V9.11555C1.76318 7.99975 2.60681 7.09904 3.65189 7.09904H6.17018C6.52274 7.09904 6.79975 7.39479 6.79975 7.77121C6.79975 8.14762 6.52274 8.44338 6.17018 8.44338H3.65189C3.29934 8.44338 3.02232 8.73913 3.02232 9.11555V18.5259C3.02232 18.9023 3.29934 19.1981 3.65189 19.1981H16.2433C16.5959 19.1981 16.8729 18.9023 16.8729 18.5259V9.11555C16.8729 8.73913 16.5959 8.44338 16.2433 8.44338H13.725C13.3725 8.44338 13.0955 8.14762 13.0955 7.77121C13.0955 7.39479 13.3725 7.09904 13.725 7.09904H16.2433C17.2884 7.09904 18.132 7.99975 18.132 9.11555V18.5259C18.132 19.6417 17.2884 20.5424 16.2433 20.5424Z" fill="#16139B"/>
</svg>
