<svg width="145" height="145" viewBox="0 0 145 145" fill="none" xmlns="http://www.w3.org/2000/svg">
<path d="M69.4792 107.36H75.5209V78.9948L88.2084 91.6823L92.4859 87.3746L72.5 67.3888L52.5142 87.3746L56.828 91.646L69.4792 78.9948V107.354V107.36ZM39.9657 126.875C37.1865 126.875 34.8665 125.945 33.0057 124.084C31.1408 122.219 30.2084 119.897 30.2084 117.118V27.8823C30.2084 25.1031 31.1408 22.7831 33.0057 20.9223C34.8665 19.0574 37.1865 18.125 39.9657 18.125H87.6042L114.792 45.3125V117.118C114.792 119.897 113.861 122.217 112 124.078C110.136 125.943 107.814 126.875 105.034 126.875H39.9657ZM84.5834 48.3333V24.1667H39.9657C39.0393 24.1667 38.1874 24.5533 37.41 25.3267C36.6367 26.104 36.25 26.9559 36.25 27.8823V117.118C36.25 118.044 36.6367 118.896 37.41 119.673C38.1874 120.447 39.0393 120.833 39.9657 120.833H105.034C105.961 120.833 106.813 120.447 107.59 119.673C108.363 118.896 108.75 118.044 108.75 117.118V48.3333H84.5834Z" fill="#09077D"/>
</svg>
